<svg width="300" height="100" viewBox="0 0 300 100" fill="none" xmlns="http://www.w3.org/2000/svg">
<mask id="mask0_2_83" style="mask-type:luminance" maskUnits="userSpaceOnUse" x="0" y="0" width="300" height="100">
<path d="M300 0.742676H0V99.7526H300V0.742676Z" fill="white"/>
</mask>
<g mask="url(#mask0_2_83)">
<path d="M122.855 57.4296C122.855 58.0871 122.81 58.7317 122.719 59.3634C122.641 59.9952 122.582 60.6397 122.543 61.2972C122.452 61.2069 122.348 61.1361 122.23 61.0845C122.126 61.02 122.016 60.9878 121.898 60.9878C121.755 60.9878 121.618 61.0329 121.488 61.1232C121.358 61.2134 121.293 61.3294 121.293 61.4712C121.293 61.6259 121.365 61.7291 121.508 61.7806C121.664 61.8322 121.82 61.858 121.977 61.858C122.107 61.858 122.198 61.8516 122.25 61.8386C122.25 61.9934 122.204 62.1545 122.113 62.3221C122.035 62.4768 121.931 62.6315 121.801 62.7862C121.684 62.9409 121.553 63.0892 121.41 63.231C121.28 63.3599 121.163 63.4759 121.059 63.579C120.98 63.6564 120.896 63.7659 120.805 63.9078C120.714 64.0496 120.609 64.1914 120.492 64.3333C120.388 64.4622 120.277 64.5782 120.16 64.6813C120.043 64.7716 119.926 64.8166 119.809 64.8166C119.678 64.8166 119.574 64.7845 119.496 64.72C119.418 64.6427 119.327 64.604 119.223 64.604C119.079 64.604 118.988 64.6813 118.949 64.836C118.923 64.9778 118.91 65.1196 118.91 65.2615V65.4935C118.91 65.5579 118.773 65.6418 118.5 65.7449C118.227 65.848 117.895 65.9641 117.504 66.093C117.126 66.209 116.729 66.3315 116.312 66.4604C115.909 66.5764 115.57 66.6925 115.297 66.8085C114.763 67.0276 114.223 67.2081 113.676 67.3499C113.129 67.4918 112.562 67.5627 111.977 67.5627C111.547 67.5627 111.13 67.5047 110.727 67.3886C110.336 67.2855 109.939 67.1694 109.535 67.0405C109.145 66.8987 108.747 66.7762 108.344 66.6731C107.953 66.5571 107.543 66.4991 107.113 66.4991C106.944 66.4991 106.723 66.5249 106.449 66.5764C106.176 66.628 105.967 66.7054 105.824 66.8085C105.759 66.86 105.694 66.9503 105.629 67.0792C105.564 67.221 105.486 67.2919 105.395 67.2919C105.329 67.2919 105.238 67.2662 105.121 67.2146C105.004 67.163 104.919 67.1244 104.867 67.0985C104.568 66.9439 104.314 66.7441 104.105 66.4991C103.897 66.2412 103.721 65.9641 103.578 65.6675C103.435 65.371 103.331 65.0616 103.266 64.7393C103.201 64.4042 103.168 64.0819 103.168 63.7725C103.168 63.5533 103.188 63.3406 103.227 63.1343C103.279 62.9152 103.305 62.696 103.305 62.4768C103.305 62.1674 103.266 61.8645 103.188 61.5679C103.122 61.2714 103.09 60.9684 103.09 60.659C103.09 60.4399 103.122 60.2207 103.188 60.0016C103.266 59.7824 103.305 59.5633 103.305 59.3441C103.305 59.1764 103.266 59.0218 103.188 58.88C103.109 58.7253 103.07 58.5641 103.07 58.3965C103.07 58.2805 103.109 58.1838 103.188 58.1064C103.279 58.0291 103.324 57.9388 103.324 57.8358C103.324 57.681 103.318 57.5263 103.305 57.3716C103.292 57.2169 103.285 57.0622 103.285 56.9075C103.285 56.8301 103.285 56.7206 103.285 56.5787C103.298 56.4241 103.318 56.2758 103.344 56.134C103.37 55.9922 103.415 55.8697 103.48 55.7665C103.546 55.6635 103.637 55.6119 103.754 55.6119C103.988 55.6119 104.223 55.7601 104.457 56.0566C104.704 56.3402 104.926 56.6755 105.121 57.0622C105.329 57.4489 105.499 57.8358 105.629 58.2225C105.759 58.6092 105.824 58.8993 105.824 59.0927C105.824 59.1571 105.798 59.2216 105.746 59.286C105.694 59.3376 105.629 59.3634 105.551 59.3634C105.603 59.4537 105.661 59.589 105.727 59.7695C105.792 59.95 105.824 60.0918 105.824 60.195C105.824 60.3496 105.798 60.4979 105.746 60.6397C105.707 60.7815 105.688 60.9298 105.688 61.0845C105.688 61.2134 105.714 61.3358 105.766 61.4519C105.831 61.5679 105.896 61.6775 105.961 61.7806C106.065 61.9354 106.156 62.0514 106.234 62.1287C106.312 62.206 106.397 62.2641 106.488 62.3028C106.579 62.3285 106.677 62.3479 106.781 62.3608C106.898 62.3737 107.048 62.3865 107.23 62.3994C107.491 62.7733 107.784 63.1214 108.109 63.4437C108.435 63.766 108.786 64.056 109.164 64.3139C109.75 64.4428 110.329 64.546 110.902 64.6233C111.475 64.7007 112.055 64.7393 112.641 64.7393C113.122 64.7393 113.539 64.6877 113.891 64.5847C114.255 64.4815 114.587 64.3461 114.887 64.1785C115.199 64.0109 115.499 63.824 115.785 63.6177C116.072 63.3986 116.371 63.173 116.684 62.9409C116.905 62.7862 117.139 62.6379 117.387 62.4961C117.634 62.3544 117.875 62.2061 118.109 62.0514C118.344 61.8966 118.565 61.7291 118.773 61.5486C118.982 61.3553 119.158 61.136 119.301 60.8911C119.392 60.7364 119.522 60.5817 119.691 60.4269C119.874 60.2594 119.965 60.0789 119.965 59.8856C119.965 59.8081 119.958 59.7502 119.945 59.7115C119.893 59.2989 119.854 58.8993 119.828 58.5126C119.815 58.1129 119.796 57.7068 119.77 57.2943C119.743 56.9075 119.659 56.6174 119.516 56.4241C119.372 56.2177 119.19 56.0502 118.969 55.9213C118.76 55.7794 118.533 55.6441 118.285 55.5152C118.038 55.3862 117.797 55.2058 117.562 54.9737C117.315 54.7287 117.035 54.5741 116.723 54.5096C116.423 54.4452 116.111 54.4064 115.785 54.3936C115.46 54.3807 115.134 54.3613 114.809 54.3356C114.496 54.2968 114.203 54.1744 113.93 53.9681C113.852 53.9165 113.786 53.8908 113.734 53.8908C113.617 53.8908 113.5 53.9295 113.383 54.0068C113.279 54.0713 113.161 54.1035 113.031 54.1035C112.836 54.1035 112.634 54.0777 112.426 54.0261C112.23 53.9746 112.035 53.9165 111.84 53.8521C111.645 53.7876 111.449 53.7232 111.254 53.6587C111.059 53.5943 110.863 53.5491 110.668 53.5234C110.408 53.4847 110.193 53.4589 110.023 53.446C109.867 53.4331 109.717 53.4138 109.574 53.388C109.444 53.3493 109.301 53.2977 109.145 53.2333C108.988 53.1559 108.793 53.0399 108.559 52.8853C107.882 52.4469 107.159 52.1246 106.391 51.9183C106.247 51.5573 106.059 51.1899 105.824 50.816C105.681 50.7259 105.538 50.642 105.395 50.5647C105.264 50.4745 105.134 50.3777 105.004 50.2746C104.926 50.1457 104.822 49.9201 104.691 49.5978C104.574 49.2755 104.457 48.9339 104.34 48.5729C104.223 48.199 104.118 47.8509 104.027 47.5286C103.949 47.2063 103.91 46.9743 103.91 46.8325C103.91 46.536 103.943 46.2523 104.008 45.9816C104.073 45.7109 104.223 45.466 104.457 45.2467C104.496 45.221 104.542 45.1887 104.594 45.1501C104.659 45.0985 104.691 45.0405 104.691 44.976C104.691 44.9116 104.639 44.8664 104.535 44.8407C104.444 44.802 104.398 44.7311 104.398 44.6279C104.398 44.6151 104.405 44.5958 104.418 44.5699C104.431 44.5313 104.438 44.499 104.438 44.4733C104.529 44.1896 104.665 43.9189 104.848 43.6611C105.03 43.4032 105.238 43.1582 105.473 42.9262C105.707 42.6942 105.948 42.4814 106.195 42.288C106.456 42.0818 106.703 41.8949 106.938 41.7272C107.107 41.6112 107.25 41.463 107.367 41.2825C107.497 41.102 107.634 40.9731 107.777 40.8958C107.868 40.8958 107.96 40.8958 108.051 40.8958C108.142 40.8829 108.233 40.8764 108.324 40.8764C108.428 40.8764 108.52 40.8829 108.598 40.8958C108.689 40.8958 108.786 40.8958 108.891 40.8958C109.034 40.8442 109.132 40.7861 109.184 40.7217C109.236 40.6444 109.288 40.5735 109.34 40.509C109.392 40.4446 109.457 40.393 109.535 40.3543C109.626 40.3157 109.783 40.2962 110.004 40.2962C110.147 40.2962 110.29 40.3027 110.434 40.3157C110.577 40.3157 110.72 40.3157 110.863 40.3157C111.358 40.3157 111.846 40.3091 112.328 40.2962C112.823 40.2834 113.318 40.2769 113.812 40.2769C114.164 40.2769 114.509 40.2834 114.848 40.2962C115.199 40.2962 115.551 40.3221 115.902 40.3736C116.137 40.3994 116.365 40.451 116.586 40.5283C116.807 40.5928 117.042 40.625 117.289 40.625C117.523 40.625 117.686 40.5799 117.777 40.4896C117.882 40.3994 117.96 40.3027 118.012 40.1996C118.077 40.0964 118.148 39.9997 118.227 39.9095C118.305 39.8192 118.441 39.7742 118.637 39.7742C118.91 39.7742 119.19 39.8451 119.477 39.9868C119.776 40.1286 120.056 40.2447 120.316 40.335L120.297 40.4123C120.258 40.5283 120.238 40.6572 120.238 40.799C120.238 41.0182 120.271 41.2373 120.336 41.4565C120.414 41.6628 120.492 41.8691 120.57 42.0754C120.648 42.2816 120.72 42.4879 120.785 42.6942C120.863 42.9004 120.902 43.1196 120.902 43.3517C120.902 43.4935 120.889 43.6288 120.863 43.7577C120.837 43.8738 120.824 44.0027 120.824 44.1445C120.824 44.4024 120.876 44.5893 120.98 44.7053C121.085 44.8084 121.137 44.9052 121.137 44.9954C121.137 45.0985 121.091 45.1887 121 45.2661C120.909 45.3306 120.863 45.4337 120.863 45.5755C120.863 45.9107 120.883 46.2459 120.922 46.5811C120.961 46.9034 120.98 47.2321 120.98 47.5673C120.98 47.6834 120.974 47.8573 120.961 48.0894C120.961 48.3215 120.935 48.5536 120.883 48.7856C120.844 49.0048 120.772 49.1981 120.668 49.3658C120.577 49.5333 120.44 49.6171 120.258 49.6171C120.062 49.6171 119.874 49.5462 119.691 49.4044C119.509 49.2497 119.359 49.1014 119.242 48.9596C119.073 48.7791 118.949 48.5858 118.871 48.3795C118.793 48.1603 118.728 47.9348 118.676 47.7027C118.624 47.4706 118.565 47.245 118.5 47.0259C118.435 46.7938 118.337 46.5811 118.207 46.3877C117.999 46.0912 117.797 45.7947 117.602 45.4981C117.419 45.1887 117.237 44.8793 117.055 44.5699C116.911 44.3378 116.788 44.1767 116.684 44.0864C116.579 43.9962 116.469 43.9382 116.352 43.9125C116.234 43.8738 116.098 43.8545 115.941 43.8545C115.798 43.8545 115.616 43.8351 115.395 43.7964C115.16 43.7577 114.926 43.6997 114.691 43.6224C114.47 43.5451 114.242 43.4742 114.008 43.4097C113.786 43.3323 113.559 43.2678 113.324 43.2162C113.09 43.1518 112.855 43.1196 112.621 43.1196C112.243 43.1196 111.859 43.1776 111.469 43.2937C111.078 43.4097 110.688 43.5579 110.297 43.7384C109.906 43.906 109.522 44.0864 109.145 44.2799C108.767 44.4603 108.402 44.6151 108.051 44.744C107.725 45.4272 107.562 46.1621 107.562 46.9485C107.562 47.5158 107.628 47.9798 107.758 48.3408C107.888 48.7018 108.064 49.0112 108.285 49.269C108.52 49.514 108.78 49.7332 109.066 49.9265C109.366 50.1199 109.678 50.3261 110.004 50.5454C110.342 50.7645 110.674 50.9128 111 50.9901C111.339 51.0546 111.703 51.0868 112.094 51.0868C112.315 51.0868 112.53 51.0803 112.738 51.0674C112.96 51.0546 113.181 51.0481 113.402 51.0481C113.65 51.0481 113.884 51.0803 114.105 51.1448C114.327 51.2093 114.542 51.2866 114.75 51.3768C114.971 51.4543 115.193 51.5252 115.414 51.5896C115.635 51.6541 115.863 51.6862 116.098 51.6862C116.319 51.6862 116.527 51.6734 116.723 51.6476C116.931 51.6218 117.139 51.6089 117.348 51.6089C117.53 51.6089 117.693 51.6541 117.836 51.7443C117.979 51.8216 118.122 51.9183 118.266 52.0344C118.409 52.1375 118.552 52.2342 118.695 52.3245C118.852 52.4147 119.021 52.4662 119.203 52.4791C119.464 52.608 119.678 52.7241 119.848 52.8272C120.017 52.9303 120.167 53.0399 120.297 53.156C120.44 53.272 120.57 53.4138 120.688 53.5814C120.818 53.749 120.961 53.9553 121.117 54.2002C121.26 54.4452 121.449 54.6578 121.684 54.8383C121.918 55.0188 122.107 55.238 122.25 55.4959C122.302 55.5861 122.335 55.6957 122.348 55.8246C122.361 55.9406 122.38 56.0566 122.406 56.1727C122.432 56.2758 122.471 56.3725 122.523 56.4627C122.589 56.5401 122.686 56.5852 122.816 56.5981C122.829 56.7399 122.836 56.8817 122.836 57.0236C122.849 57.1525 122.855 57.2878 122.855 57.4296ZM144.77 63.0957C144.77 63.2246 144.717 63.3148 144.613 63.3663C144.522 63.4179 144.431 63.4695 144.34 63.521C144.197 63.5984 144.079 63.6886 143.988 63.7918C143.897 63.895 143.812 64.0109 143.734 64.1398C143.656 64.2558 143.585 64.3848 143.52 64.5266C143.454 64.6556 143.383 64.778 143.305 64.8941C143.122 65.1648 142.868 65.3517 142.543 65.4549C142.23 65.5579 141.918 65.6547 141.605 65.7449C141.293 65.8352 141.007 65.9641 140.746 66.1317C140.499 66.2863 140.342 66.5571 140.277 66.9439H140.18C139.88 66.9439 139.6 66.9955 139.34 67.0985C139.092 67.2017 138.839 67.3113 138.578 67.4273C138.331 67.5562 138.077 67.6723 137.816 67.7754C137.556 67.8785 137.283 67.9301 136.996 67.9301C136.84 67.9301 136.69 67.9043 136.547 67.8527C136.417 67.8012 136.28 67.7432 136.137 67.6787C136.007 67.6143 135.87 67.5562 135.727 67.5047C135.596 67.4531 135.453 67.4273 135.297 67.4273C135.089 67.4273 134.887 67.4402 134.691 67.466C134.496 67.4918 134.301 67.5047 134.105 67.5047C133.962 67.5047 133.793 67.4854 133.598 67.4466C133.402 67.4209 133.22 67.3693 133.051 67.2919C132.882 67.2146 132.738 67.1179 132.621 67.0019C132.504 66.873 132.445 66.7182 132.445 66.5377C132.445 66.4733 132.452 66.4217 132.465 66.3831C132.4 66.4475 132.328 66.4927 132.25 66.5184C132.172 66.5313 132.094 66.5377 132.016 66.5377C131.625 66.5377 131.26 66.454 130.922 66.2864C130.596 66.1059 130.284 65.8932 129.984 65.6482C129.698 65.3904 129.424 65.1196 129.164 64.836C128.917 64.5395 128.669 64.2688 128.422 64.0239C128.122 63.7273 127.888 63.3857 127.719 62.9989C127.562 62.6122 127.374 62.2383 127.152 61.8773C126.684 61.1296 126.397 60.3755 126.293 59.6148C126.189 58.8413 126.137 58.0356 126.137 57.1975C126.137 57.0429 126.143 56.8688 126.156 56.6755C126.182 56.4692 126.228 56.3209 126.293 56.2307C126.345 56.1662 126.41 56.1211 126.488 56.0953C126.566 56.0566 126.638 56.0244 126.703 55.9986C126.781 55.9599 126.846 55.9213 126.898 55.8826C126.951 55.8439 126.977 55.7859 126.977 55.7085C126.977 55.528 126.931 55.3669 126.84 55.2251C126.749 55.0704 126.703 54.9028 126.703 54.7223C126.703 54.5934 126.729 54.4838 126.781 54.3936C126.846 54.3034 126.911 54.2066 126.977 54.1035C127.081 53.936 127.172 53.6587 127.25 53.272C127.341 52.8723 127.432 52.4791 127.523 52.0924C127.628 51.6927 127.751 51.3447 127.895 51.0481C128.051 50.7387 128.253 50.584 128.5 50.584C128.682 50.584 128.852 50.6098 129.008 50.6614C129.164 50.713 129.333 50.7387 129.516 50.7387C129.672 50.7387 129.822 50.7194 129.965 50.6807L129.984 50.526C129.984 50.3713 129.932 50.2746 129.828 50.236C129.737 50.1972 129.633 50.1715 129.516 50.1586C129.411 50.1457 129.307 50.1328 129.203 50.1199C129.112 50.0942 129.066 50.0232 129.066 49.9071C129.066 49.8298 129.099 49.7654 129.164 49.7138C129.242 49.6493 129.327 49.5978 129.418 49.5591C129.522 49.5075 129.626 49.4624 129.73 49.4238C129.835 49.3851 129.913 49.3463 129.965 49.3077C130.095 49.2046 130.186 49.1079 130.238 49.0176C130.29 48.9145 130.336 48.8178 130.375 48.7275C130.427 48.6373 130.499 48.56 130.59 48.4956C130.681 48.4311 130.831 48.3731 131.039 48.3215C131.221 48.2828 131.404 48.2635 131.586 48.2635C131.768 48.2506 131.951 48.2442 132.133 48.2442C132.315 48.2312 132.497 48.2183 132.68 48.2055C132.862 48.1926 133.044 48.1603 133.227 48.1087L133.031 47.9154C133.096 47.7993 133.188 47.7091 133.305 47.6447C133.422 47.5673 133.552 47.5093 133.695 47.4706C133.852 47.4319 134.001 47.4126 134.145 47.4126C134.301 47.3997 134.438 47.3933 134.555 47.3933C135.01 47.3933 135.453 47.4513 135.883 47.5673C136.312 47.6834 136.742 47.7414 137.172 47.7414C137.354 47.7414 137.53 47.722 137.699 47.6834C137.882 47.6318 138.064 47.606 138.246 47.606C138.52 47.606 138.773 47.6768 139.008 47.8187C139.255 47.9476 139.49 48.0701 139.711 48.1861L139.789 48.2055C139.906 48.2055 140.004 48.1603 140.082 48.0701C140.16 47.9798 140.238 47.9348 140.316 47.9348C140.382 47.9348 140.434 47.9669 140.473 48.0314C140.512 48.083 140.551 48.1346 140.59 48.1861C140.694 48.3022 140.831 48.3795 141 48.4181C141.182 48.444 141.306 48.5084 141.371 48.6116C141.462 48.7662 141.566 48.8759 141.684 48.9403C141.801 48.9919 141.918 49.0305 142.035 49.0563C142.152 49.0821 142.276 49.1079 142.406 49.1337C142.536 49.1594 142.66 49.2174 142.777 49.3077V49.8492C143.038 50.1844 143.279 50.4422 143.5 50.6227C143.734 50.7903 143.936 50.9708 144.105 51.1642C144.288 51.3447 144.424 51.5766 144.516 51.8603C144.62 52.131 144.672 52.5307 144.672 53.0592C144.672 53.6265 144.62 54.1229 144.516 54.5483C144.424 54.9737 144.255 55.3347 144.008 55.6312C143.773 55.9149 143.454 56.134 143.051 56.2887C142.647 56.4305 142.146 56.495 141.547 56.4821L140.277 56.4627C140.173 56.2952 140.023 56.0631 139.828 55.7665C139.633 55.4571 139.438 55.1413 139.242 54.819C139.047 54.4838 138.871 54.1744 138.715 53.8908C138.572 53.5943 138.5 53.3686 138.5 53.214C138.5 53.0206 138.513 52.8272 138.539 52.6339C138.578 52.4404 138.598 52.247 138.598 52.0537C138.507 51.8087 138.383 51.6089 138.227 51.4543C138.083 51.2995 137.914 51.1835 137.719 51.1061C137.523 51.0159 137.309 50.9578 137.074 50.9321C136.853 50.9063 136.625 50.8934 136.391 50.8934C136.052 50.8934 135.714 50.9192 135.375 50.9708C135.049 51.0224 134.73 51.1062 134.418 51.2222C134.418 51.1062 134.385 51.003 134.32 50.9128C134.268 50.8096 134.171 50.758 134.027 50.758C133.845 50.758 133.624 50.8289 133.363 50.9708C133.103 51.0997 132.836 51.2608 132.562 51.4543C132.302 51.6476 132.061 51.8539 131.84 52.0731C131.618 52.2793 131.456 52.4598 131.352 52.6145C131.26 52.7434 131.137 52.9433 130.98 53.214C130.824 53.4847 130.655 53.7555 130.473 54.0261C130.303 54.2968 130.121 54.5418 129.926 54.761C129.743 54.9672 129.574 55.0768 129.418 55.0897C129.457 55.2702 129.509 55.5152 129.574 55.8246C129.639 56.1211 129.698 56.4369 129.75 56.7721C129.802 57.1073 129.848 57.4296 129.887 57.739C129.926 58.0356 129.945 58.2676 129.945 58.4352C129.945 58.7317 129.997 59.0089 130.102 59.2667C130.206 59.5246 130.258 59.8017 130.258 60.0982C130.258 60.3174 130.225 60.5365 130.16 60.7558C130.108 60.9749 130.082 61.1941 130.082 61.4132C130.082 61.6066 130.108 61.7356 130.16 61.8C130.225 61.8645 130.349 61.9225 130.531 61.9741C130.74 62.0385 130.883 62.148 130.961 62.3028C131.052 62.4574 131.124 62.6186 131.176 62.7862C131.241 62.9409 131.312 63.0762 131.391 63.1923C131.482 63.3083 131.638 63.3663 131.859 63.3663H131.957L132.191 63.347C132.348 63.5533 132.439 63.7854 132.465 64.0432C132.504 64.301 132.602 64.5331 132.758 64.7393C132.849 64.7264 132.908 64.6877 132.934 64.6233C132.96 64.5588 132.986 64.4944 133.012 64.4299C133.038 64.3655 133.077 64.3074 133.129 64.2559C133.194 64.2044 133.305 64.1785 133.461 64.1785C133.604 64.1785 133.721 64.2172 133.812 64.2946C133.904 64.3719 133.988 64.4622 134.066 64.5653C134.145 64.6556 134.223 64.7393 134.301 64.8166C134.392 64.8941 134.503 64.9327 134.633 64.9327C134.854 64.9327 135.095 64.8941 135.355 64.8166C135.629 64.7264 135.902 64.6297 136.176 64.5266C136.462 64.4106 136.742 64.2946 137.016 64.1785C137.289 64.0625 137.536 63.9723 137.758 63.9078C138.292 63.7531 138.793 63.5275 139.262 63.231C139.73 62.9345 140.108 62.5413 140.395 62.0514C140.538 61.7936 140.707 61.5551 140.902 61.3359C141.111 61.1167 141.273 60.8718 141.391 60.601C141.521 60.601 141.651 60.5946 141.781 60.5817C141.911 60.5688 142.048 60.5624 142.191 60.5624C142.23 60.5624 142.289 60.5624 142.367 60.5624C142.458 60.5624 142.549 60.5688 142.641 60.5817C142.732 60.5946 142.81 60.614 142.875 60.6397C142.953 60.6655 142.992 60.6977 142.992 60.7364C142.992 60.8524 142.947 60.9491 142.855 61.0264C142.777 61.0909 142.686 61.1554 142.582 61.2198C142.491 61.2714 142.406 61.3359 142.328 61.4132C142.25 61.4776 142.211 61.5744 142.211 61.7033L142.426 61.684C142.582 61.684 142.79 61.7226 143.051 61.8C143.311 61.8773 143.565 61.9869 143.812 62.1287C144.073 62.2576 144.294 62.4059 144.477 62.5735C144.672 62.7411 144.77 62.9152 144.77 63.0957ZM143.363 64.1785C143.363 64.1012 143.331 64.0367 143.266 63.9852C143.214 63.9207 143.148 63.8884 143.07 63.8884C142.979 63.8884 142.901 63.9464 142.836 64.0625C142.771 64.1785 142.738 64.2688 142.738 64.3333C142.738 64.4106 142.784 64.4493 142.875 64.4493C142.966 64.4363 143.025 64.4299 143.051 64.4299C143.116 64.4299 143.181 64.417 143.246 64.3913C143.324 64.3526 143.363 64.2817 143.363 64.1785ZM169.086 52.9626C169.086 53.2204 169.034 53.4396 168.93 53.62C168.826 53.8005 168.708 53.9746 168.578 54.1422C168.461 54.2968 168.337 54.458 168.207 54.6257C168.09 54.7932 168.012 54.9931 167.973 55.2251C167.855 55.1736 167.732 55.1413 167.602 55.1284C167.484 55.1156 167.361 55.1091 167.23 55.1091C166.918 55.1091 166.605 55.1349 166.293 55.1864C165.993 55.2251 165.694 55.2445 165.395 55.2445C165.043 55.2445 164.75 55.1413 164.516 54.9351C164.294 54.7159 164.112 54.4516 163.969 54.1422C163.839 53.8328 163.747 53.5041 163.695 53.156C163.643 52.795 163.617 52.4727 163.617 52.189C163.617 51.8281 163.676 51.4607 163.793 51.0868C163.689 51.0481 163.598 51.0288 163.52 51.0288C163.35 51.0288 163.227 51.0803 163.148 51.1835C163.083 51.2866 162.986 51.3382 162.855 51.3382C162.738 51.3382 162.634 51.2995 162.543 51.2222C162.452 51.1319 162.341 51.0868 162.211 51.0868C162.016 51.0868 161.768 51.1513 161.469 51.2802C161.182 51.3962 160.902 51.5509 160.629 51.7443C160.355 51.9376 160.115 52.1504 159.906 52.3824C159.711 52.6016 159.613 52.8143 159.613 53.0206C159.34 53.0463 159.079 53.1237 158.832 53.2527C158.598 53.3686 158.37 53.4976 158.148 53.6394C157.979 53.7425 157.836 53.9037 157.719 54.1229C157.602 54.342 157.491 54.5805 157.387 54.8383C157.296 55.0833 157.198 55.3347 157.094 55.5925C157.003 55.8504 156.892 56.0631 156.762 56.2307C156.54 56.5143 156.345 56.8044 156.176 57.1009C156.02 57.3845 155.941 57.7068 155.941 58.0677C155.941 58.519 156.013 58.9766 156.156 59.4408C156.299 59.9049 156.371 60.3755 156.371 60.8524C156.371 61.1618 156.345 61.4712 156.293 61.7806C156.254 62.09 156.234 62.393 156.234 62.6895C156.234 63.0505 156.299 63.3406 156.43 63.5597C156.56 63.7789 156.736 63.9529 156.957 64.0819C157.178 64.1978 157.432 64.2753 157.719 64.3139C158.005 64.3526 158.298 64.3719 158.598 64.3719C158.923 64.3719 159.236 64.3655 159.535 64.3526C159.848 64.3268 160.134 64.3139 160.395 64.3139C160.486 64.417 160.538 64.5138 160.551 64.604C160.564 64.6942 160.557 64.7909 160.531 64.8941C160.518 64.9843 160.492 65.081 160.453 65.1841C160.427 65.2744 160.414 65.384 160.414 65.5129C160.414 65.5645 160.427 65.6289 160.453 65.7062C160.648 65.7062 160.818 65.6611 160.961 65.5709C161.104 65.4806 161.208 65.3388 161.273 65.1455C161.365 65.1712 161.443 65.2099 161.508 65.2615C161.586 65.313 161.625 65.3904 161.625 65.4935C161.625 65.5709 161.605 65.6482 161.566 65.7256C161.527 65.79 161.482 65.8545 161.43 65.9189C161.378 65.9834 161.332 66.0543 161.293 66.1317C161.254 66.1961 161.234 66.2735 161.234 66.3637C161.234 66.4153 161.241 66.4733 161.254 66.5377C161.267 66.5893 161.286 66.6345 161.312 66.6731C161.247 66.7762 161.156 66.8471 161.039 66.8859C160.922 66.9246 160.805 66.9439 160.688 66.9439C160.479 66.9439 160.303 66.9116 160.16 66.8471C160.03 66.7827 159.906 66.7118 159.789 66.6345C159.685 66.5571 159.587 66.4861 159.496 66.4217C159.405 66.3572 159.294 66.3251 159.164 66.3251C159.112 66.3251 159.034 66.3379 158.93 66.3637C158.826 66.3895 158.721 66.4217 158.617 66.4604C158.513 66.4991 158.422 66.5506 158.344 66.6151C158.266 66.6666 158.227 66.7182 158.227 66.7698C158.227 66.873 158.259 66.9632 158.324 67.0405C158.402 67.1179 158.441 67.2081 158.441 67.3113C158.441 67.4015 158.409 67.4724 158.344 67.524C158.279 67.5756 158.201 67.6078 158.109 67.6207C158.018 67.6464 157.921 67.6593 157.816 67.6593C157.725 67.6723 157.647 67.6787 157.582 67.6787C157.074 67.6787 156.566 67.6207 156.059 67.5047C155.564 67.4015 155.062 67.3499 154.555 67.3499C154.32 67.3499 154.086 67.4015 153.852 67.5047C153.617 67.6078 153.37 67.6593 153.109 67.6593C152.966 67.6593 152.855 67.6271 152.777 67.5627C152.712 67.5111 152.654 67.4466 152.602 67.3693C152.549 67.2919 152.491 67.221 152.426 67.1565C152.361 67.105 152.263 67.0792 152.133 67.0792C151.885 67.0792 151.638 67.105 151.391 67.1565C151.156 67.2081 150.915 67.2597 150.668 67.3113C150.434 67.3757 150.193 67.4273 149.945 67.466C149.711 67.5175 149.47 67.5434 149.223 67.5434C149.092 67.5434 148.936 67.524 148.754 67.4854C148.572 67.4595 148.396 67.4079 148.227 67.3306C148.057 67.2533 147.914 67.1565 147.797 67.0405C147.68 66.9246 147.621 66.7827 147.621 66.6151C147.621 66.512 147.68 66.3766 147.797 66.209C147.927 66.0414 148.07 65.8803 148.227 65.7256C148.383 65.5579 148.539 65.4162 148.695 65.3001C148.852 65.1841 148.969 65.126 149.047 65.126C149.255 65.126 149.457 65.1326 149.652 65.1455C149.861 65.1583 150.076 65.1648 150.297 65.1648C150.648 65.1648 151 65.1132 151.352 65.0101C151.716 64.8941 152.042 64.7329 152.328 64.5266C152.628 64.3203 152.868 64.0625 153.051 63.7531C153.233 63.4437 153.324 63.0957 153.324 62.7088C153.324 62.5413 153.311 62.3801 153.285 62.2255C153.259 62.0578 153.246 61.8902 153.246 61.7226C153.246 61.3874 153.285 61.0523 153.363 60.717C153.441 60.3819 153.48 60.0466 153.48 59.7115C153.48 59.2603 153.428 58.8026 153.324 58.3385C153.233 57.8615 153.188 57.3845 153.188 56.9075C153.188 56.4821 153.194 56.0631 153.207 55.6505C153.233 55.2251 153.246 54.7997 153.246 54.3743C153.246 54.1809 153.24 53.8972 153.227 53.5234C153.214 53.1495 153.168 52.7757 153.09 52.4018C153.025 52.0279 152.914 51.6991 152.758 51.4156C152.615 51.1319 152.413 50.9901 152.152 50.9901C151.866 50.9901 151.579 51.0224 151.293 51.0868C151.007 51.1513 150.714 51.1835 150.414 51.1835C150.193 51.1835 149.932 51.1706 149.633 51.1448C149.333 51.1061 149.047 51.0417 148.773 50.9514C148.5 50.8483 148.266 50.7064 148.07 50.526C147.875 50.3456 147.777 50.107 147.777 49.8105C147.777 49.4882 147.823 49.2304 147.914 49.0369C148.005 48.8307 148.122 48.6761 148.266 48.5729C148.422 48.4697 148.598 48.3988 148.793 48.3602C149.001 48.3215 149.223 48.3022 149.457 48.3022C149.665 48.3022 149.88 48.3086 150.102 48.3215C150.323 48.3344 150.538 48.3408 150.746 48.3408C151.163 48.3408 151.573 48.3215 151.977 48.2828C152.393 48.2312 152.81 48.2055 153.227 48.2055C153.513 48.2055 153.799 48.2183 154.086 48.2442C154.372 48.2699 154.652 48.3279 154.926 48.4181C155.173 48.4956 155.355 48.6438 155.473 48.863C155.59 49.0692 155.694 49.2819 155.785 49.5011C155.889 49.7202 156.007 49.9201 156.137 50.1006C156.267 50.2681 156.475 50.352 156.762 50.352C156.892 50.352 157.009 50.3197 157.113 50.2553C157.23 50.1779 157.341 50.0942 157.445 50.0039C157.549 49.9137 157.654 49.8298 157.758 49.7525C157.862 49.6752 157.986 49.6236 158.129 49.5978C158.415 49.5591 158.676 49.4688 158.91 49.327C159.158 49.1853 159.398 49.0435 159.633 48.9016C159.867 48.7598 160.102 48.6309 160.336 48.5149C160.583 48.3988 160.85 48.3408 161.137 48.3408C161.306 48.3408 161.514 48.3215 161.762 48.2828C162.022 48.2442 162.276 48.1926 162.523 48.1281C162.784 48.0507 163.025 47.9605 163.246 47.8573C163.48 47.7543 163.663 47.6382 163.793 47.5093C164.145 47.5351 164.555 47.6189 165.023 47.7607C165.505 47.9025 165.961 48.0959 166.391 48.3408C166.833 48.5729 167.217 48.85 167.543 49.1724C167.868 49.4947 168.057 49.8557 168.109 50.2553C168.148 50.5002 168.22 50.7323 168.324 50.9514C168.428 51.1706 168.533 51.3897 168.637 51.6089C168.754 51.8152 168.858 52.0344 168.949 52.2664C169.04 52.4856 169.086 52.7176 169.086 52.9626ZM182.875 42.8102C182.875 43.1841 182.81 43.5708 182.68 43.9705C182.562 44.3572 182.387 44.7182 182.152 45.0534C181.918 45.3757 181.632 45.6464 181.293 45.8656C180.967 46.0719 180.603 46.175 180.199 46.175C179.926 46.175 179.587 46.1363 179.184 46.0589C178.78 45.9687 178.389 45.8462 178.012 45.6915C177.647 45.524 177.328 45.3112 177.055 45.0534C176.794 44.7956 176.664 44.4926 176.664 44.1445C176.664 43.8351 176.697 43.5192 176.762 43.1969C176.84 42.8618 176.885 42.5265 176.898 42.1914C177.029 42.1269 177.159 42.0109 177.289 41.8433C177.419 41.6757 177.543 41.5081 177.66 41.3405C177.79 41.16 177.914 40.9989 178.031 40.857C178.161 40.7153 178.292 40.6379 178.422 40.625L178.324 40.6637C178.507 40.5863 178.695 40.5219 178.891 40.4703C179.099 40.4187 179.307 40.393 179.516 40.393C179.789 40.393 180.115 40.4639 180.492 40.6057C180.883 40.7346 181.254 40.9086 181.605 41.1278C181.957 41.3469 182.257 41.6048 182.504 41.9013C182.751 42.1978 182.875 42.5008 182.875 42.8102ZM192.328 66.3444C192.328 66.5636 192.283 66.7698 192.191 66.9632C192.113 67.1565 191.996 67.3242 191.84 67.466C191.697 67.6207 191.527 67.7432 191.332 67.8334C191.137 67.9237 190.922 67.9687 190.688 67.9687C190.596 67.9687 190.538 67.9558 190.512 67.9301C190.486 67.9043 190.44 67.8592 190.375 67.7948C190.193 67.6013 189.971 67.4854 189.711 67.4466C189.451 67.4209 189.177 67.3886 188.891 67.3499C188.617 67.3242 188.35 67.2533 188.09 67.1372C187.842 67.0341 187.641 66.815 187.484 66.4797C187.38 66.2606 187.27 66.1187 187.152 66.0543C187.035 65.9898 186.853 65.9576 186.605 65.9576C186.033 65.9576 185.486 66.0478 184.965 66.2283C184.444 66.4088 183.93 66.6151 183.422 66.8471C182.914 67.0663 182.393 67.2661 181.859 67.4466C181.339 67.6271 180.798 67.7173 180.238 67.7173C179.926 67.7173 179.613 67.6852 179.301 67.6207C179.001 67.5691 178.708 67.4788 178.422 67.3499C178.357 67.4144 178.279 67.4595 178.188 67.4854C178.109 67.5111 178.018 67.524 177.914 67.524C177.823 67.524 177.732 67.5175 177.641 67.5047C177.562 67.4918 177.491 67.4854 177.426 67.4854C177.413 67.4854 177.341 67.5047 177.211 67.5434C177.081 67.5949 177.003 67.6271 176.977 67.64L177.094 67.8334C177.016 67.9494 176.84 68.059 176.566 68.1622C176.293 68.2781 175.993 68.3749 175.668 68.4522C175.355 68.5295 175.049 68.594 174.75 68.6456C174.451 68.6971 174.223 68.723 174.066 68.723C173.65 68.723 173.305 68.652 173.031 68.5102C172.771 68.3813 172.51 68.1492 172.25 67.8141C172.159 67.6852 172.042 67.5562 171.898 67.4273C171.768 67.2984 171.638 67.1694 171.508 67.0405C171.391 66.8987 171.286 66.7505 171.195 66.5958C171.117 66.4411 171.078 66.2799 171.078 66.1123C171.078 65.9189 171.182 65.7578 171.391 65.6289C171.599 65.4999 171.846 65.3968 172.133 65.3195C172.419 65.2292 172.706 65.1712 172.992 65.1455C173.279 65.1067 173.5 65.0874 173.656 65.0874C173.969 65.0874 174.281 65.1326 174.594 65.2228C174.906 65.3001 175.219 65.3388 175.531 65.3388C175.818 65.3388 176.091 65.3001 176.352 65.2228C176.612 65.1455 176.885 65.1067 177.172 65.1067C177.419 65.1067 177.66 65.126 177.895 65.1648C178.142 65.1905 178.389 65.2035 178.637 65.2035C178.949 65.2035 179.249 65.1519 179.535 65.0487C179.835 64.9327 180.115 64.7845 180.375 64.604C180.479 63.9723 180.551 63.3406 180.59 62.7088C180.642 62.0771 180.668 61.439 180.668 60.7944C180.668 60.1627 180.616 59.531 180.512 58.8993C180.408 58.2676 180.355 57.6424 180.355 57.0236C180.355 56.972 180.368 56.9461 180.395 56.9461C180.421 56.9333 180.447 56.9268 180.473 56.9268C180.512 56.914 180.544 56.9011 180.57 56.8881C180.596 56.8624 180.609 56.8108 180.609 56.7335C180.609 56.4627 180.57 56.1984 180.492 55.9406C180.414 55.6828 180.375 55.4185 180.375 55.1477C180.375 54.8126 180.421 54.4838 180.512 54.1615C180.603 53.8392 180.648 53.5105 180.648 53.1753C180.648 52.9433 180.596 52.7112 180.492 52.4791C180.388 52.247 180.251 52.0408 180.082 51.8603C179.913 51.6798 179.717 51.538 179.496 51.4349C179.275 51.3188 179.04 51.2608 178.793 51.2608C178.52 51.2608 178.246 51.2931 177.973 51.3575C177.712 51.422 177.439 51.4993 177.152 51.5896C176.866 51.6669 176.573 51.7378 176.273 51.8023C175.987 51.8667 175.681 51.899 175.355 51.899C174.978 51.899 174.607 51.8732 174.242 51.8216C173.878 51.7701 173.507 51.7121 173.129 51.6476C172.947 51.6218 172.738 51.596 172.504 51.5702C172.283 51.5445 172.068 51.4993 171.859 51.4349C171.651 51.3704 171.475 51.2738 171.332 51.1448C171.189 51.0159 171.117 50.8289 171.117 50.584C171.117 50.1328 171.195 49.7912 171.352 49.5591C171.521 49.3142 171.723 49.1337 171.957 49.0176C172.204 48.9016 172.478 48.8307 172.777 48.805C173.077 48.7791 173.363 48.7534 173.637 48.7275C174.132 48.6889 174.62 48.6566 175.102 48.6309C175.596 48.5922 176.091 48.5729 176.586 48.5729C177.198 48.5729 177.797 48.6116 178.383 48.6889C178.982 48.7534 179.587 48.7856 180.199 48.7856C180.629 48.7856 181.039 48.85 181.43 48.979C181.82 49.1079 182.159 49.3077 182.445 49.5784C182.745 49.8362 182.979 50.1651 183.148 50.5647C183.318 50.9644 183.402 51.4284 183.402 51.957C183.402 52.3051 183.324 52.6467 183.168 52.9819C183.025 53.3042 182.836 53.5943 182.602 53.8521C182.693 54.0197 182.784 54.1358 182.875 54.2002C182.966 54.2518 183.051 54.3034 183.129 54.3549C183.207 54.3936 183.272 54.4516 183.324 54.5289C183.376 54.5934 183.402 54.7223 183.402 54.9157C183.402 55.0188 183.415 55.1413 183.441 55.2831C183.48 55.412 183.572 55.483 183.715 55.4959C183.715 56.192 183.708 56.8817 183.695 57.565C183.682 58.2354 183.676 58.9122 183.676 59.5955C183.676 60.1756 183.676 60.7558 183.676 61.3359C183.689 61.916 183.741 62.4961 183.832 63.0762C183.884 63.4372 183.988 63.7145 184.145 63.9078C184.301 64.1012 184.581 64.1978 184.984 64.1978C185.57 64.1978 186.15 64.1398 186.723 64.0239C187.296 63.895 187.875 63.8305 188.461 63.8305C188.799 63.8305 189.118 63.9143 189.418 64.0819C189.73 64.2494 190.023 64.4299 190.297 64.6233C190.583 64.8166 190.857 64.9971 191.117 65.1648C191.378 65.3324 191.625 65.4161 191.859 65.4161C191.964 65.4161 192.048 65.4549 192.113 65.5322C192.178 65.5966 192.224 65.6804 192.25 65.7836C192.289 65.8739 192.309 65.9705 192.309 66.0737C192.322 66.1767 192.328 66.267 192.328 66.3444ZM213.441 57.1395C213.441 57.3587 213.389 57.5521 213.285 57.7197C213.181 57.8872 212.999 57.9775 212.738 57.9904C212.816 58.2354 212.934 58.4674 213.09 58.6865C213.246 58.9058 213.324 59.1507 213.324 59.4214C213.324 59.6019 213.292 59.7824 213.227 59.9629C213.174 60.1305 213.109 60.298 213.031 60.4657C212.966 60.6333 212.895 60.8009 212.816 60.9684C212.738 61.136 212.68 61.3037 212.641 61.4712C212.576 61.7291 212.426 62.0964 212.191 62.5735C211.97 63.0376 211.716 63.521 211.43 64.0239C211.156 64.5266 210.876 64.9971 210.59 65.4355C210.303 65.8609 210.062 66.1639 209.867 66.3444C209.724 66.4733 209.574 66.5636 209.418 66.6151C209.262 66.6666 209.105 66.7054 208.949 66.7311C208.793 66.7569 208.63 66.7827 208.461 66.8085C208.292 66.8214 208.129 66.86 207.973 66.9246C207.66 67.0663 207.361 67.2274 207.074 67.4079C206.801 67.6013 206.488 67.698 206.137 67.698C205.993 67.698 205.863 67.6658 205.746 67.6013C205.629 67.5368 205.512 67.466 205.395 67.3886C205.29 67.3113 205.18 67.2404 205.062 67.176C204.945 67.1115 204.815 67.0792 204.672 67.0792C204.503 67.1824 204.288 67.2661 204.027 67.3306C203.767 67.3951 203.493 67.4466 203.207 67.4854C202.934 67.524 202.66 67.5498 202.387 67.5627C202.126 67.5756 201.898 67.582 201.703 67.582C201.052 67.582 200.505 67.4338 200.062 67.1372C199.62 66.8536 199.21 66.4668 198.832 65.9769C198.741 66.0028 198.643 66.0478 198.539 66.1123C198.435 66.1767 198.331 66.2477 198.227 66.3251C198.122 66.4024 198.025 66.4733 197.934 66.5377C197.842 66.5893 197.771 66.6151 197.719 66.6151L197.68 66.3637L197.562 66.2283C197.445 66.2283 197.341 66.267 197.25 66.3444C197.172 66.4088 197.094 66.4862 197.016 66.5764C196.951 66.6666 196.872 66.7505 196.781 66.8278C196.703 66.8923 196.599 66.9246 196.469 66.9246C196.326 66.9246 196.189 66.9052 196.059 66.8665C195.928 66.815 195.863 66.6989 195.863 66.5184C195.863 66.3766 195.889 66.2542 195.941 66.151C196.007 66.035 196.039 65.906 196.039 65.7643C196.039 65.5966 196.02 65.4355 195.98 65.2808C195.941 65.1261 195.922 64.9714 195.922 64.8166C195.922 64.6491 195.935 64.4879 195.961 64.3333C196 64.1785 196.02 64.0174 196.02 63.8498C196.02 63.6564 195.987 63.4631 195.922 63.2696C195.87 63.0763 195.811 62.8893 195.746 62.7088C195.681 62.5155 195.616 62.3285 195.551 62.148C195.499 61.9547 195.473 61.7549 195.473 61.5486C195.473 61.2778 195.531 61.02 195.648 60.7751C195.766 60.5301 195.824 60.2723 195.824 60.0016C195.824 59.9113 195.811 59.8404 195.785 59.7888C195.759 59.7244 195.733 59.6728 195.707 59.6342C195.681 59.5826 195.655 59.5246 195.629 59.4601C195.603 59.3828 195.59 59.2732 195.59 59.1314C195.59 58.9895 195.59 58.8413 195.59 58.6865C195.603 58.519 195.609 58.403 195.609 58.3385C195.609 58.1322 195.59 57.9324 195.551 57.739C195.512 57.5457 195.492 57.3458 195.492 57.1395C195.492 56.8044 195.538 56.4692 195.629 56.134C195.72 55.7988 195.766 55.4636 195.766 55.1284C195.766 54.6772 195.727 54.226 195.648 53.7748C195.583 53.3236 195.551 52.8659 195.551 52.4018C195.551 52.2342 195.57 52.0665 195.609 51.899C195.661 51.7314 195.714 51.5638 195.766 51.3962C195.831 51.2286 195.883 51.0674 195.922 50.9128C195.974 50.7452 196 50.5711 196 50.3906C196 50.0426 195.974 49.7009 195.922 49.3658C195.87 49.0305 195.811 48.6954 195.746 48.3602C195.694 48.0121 195.642 47.6704 195.59 47.3353C195.551 46.9871 195.531 46.6391 195.531 46.291C195.531 46.0848 195.531 45.885 195.531 45.6915C195.544 45.4853 195.551 45.279 195.551 45.0727C195.551 44.4539 195.447 43.9962 195.238 43.6997C195.03 43.3903 194.763 43.1712 194.438 43.0423C194.125 42.9004 193.786 42.8166 193.422 42.7909C193.057 42.7651 192.712 42.7263 192.387 42.6749C192.074 42.6104 191.814 42.5008 191.605 42.3461C191.397 42.1785 191.293 41.8949 191.293 41.4953C191.293 41.1471 191.384 40.8699 191.566 40.6637C191.749 40.4574 191.977 40.3027 192.25 40.1996C192.51 40.0836 192.797 40.0127 193.109 39.9868C193.422 39.9482 193.708 39.9288 193.969 39.9288C194.646 39.9288 195.316 39.9933 195.98 40.1222C196.645 40.2382 197.315 40.3091 197.992 40.335C198.148 40.3736 198.246 40.4446 198.285 40.5476C198.324 40.6508 198.331 40.7797 198.305 40.9345C198.292 41.0891 198.266 41.2632 198.227 41.4565C198.188 41.6499 198.168 41.8561 198.168 42.0754C198.168 42.5008 198.155 42.9262 198.129 43.3517C198.116 43.777 198.109 44.1639 198.109 44.5119C198.109 44.6279 198.109 44.8343 198.109 45.1307C198.122 45.4272 198.135 45.7625 198.148 46.1363C198.174 46.4972 198.207 46.8841 198.246 47.2965C198.298 47.6962 198.357 48.0637 198.422 48.3988C198.5 48.7211 198.591 48.9919 198.695 49.211C198.799 49.4302 198.93 49.5398 199.086 49.5398C199.216 49.5398 199.333 49.5075 199.438 49.4431C199.555 49.3786 199.665 49.3013 199.77 49.211C199.874 49.1208 199.971 49.0305 200.062 48.9403C200.167 48.8371 200.277 48.7598 200.395 48.7082C200.668 48.5922 200.967 48.5084 201.293 48.4568C201.632 48.3924 201.957 48.3602 202.27 48.3602C202.387 48.3602 202.504 48.3279 202.621 48.2635C202.738 48.199 202.855 48.1346 202.973 48.0701C203.09 47.9928 203.214 47.9218 203.344 47.8573C203.474 47.7929 203.617 47.7607 203.773 47.7607C203.956 47.7607 204.132 47.7929 204.301 47.8573C204.483 47.9089 204.652 47.9734 204.809 48.0507C204.978 48.1281 205.147 48.2055 205.316 48.2828C205.499 48.3472 205.681 48.386 205.863 48.3988C206.124 48.4247 206.384 48.4568 206.645 48.4956C206.918 48.5213 207.178 48.5858 207.426 48.6889C207.569 48.7534 207.673 48.8307 207.738 48.921C207.803 49.0112 207.895 49.0885 208.012 49.153C208.155 49.2433 208.292 49.2949 208.422 49.3077C208.552 49.3206 208.682 49.3335 208.812 49.3463C208.943 49.3593 209.079 49.3915 209.223 49.4431C209.366 49.4818 209.529 49.572 209.711 49.7138C209.893 49.8685 210.082 50.0296 210.277 50.1972C210.486 50.352 210.674 50.5195 210.844 50.7C211.026 50.8805 211.182 51.0739 211.312 51.2802C211.456 51.4864 211.553 51.7121 211.605 51.957C211.697 52.4469 211.833 52.9883 212.016 53.5814C212.198 54.1744 212.432 54.6772 212.719 55.0897C212.927 55.3862 213.096 55.7085 213.227 56.0566C213.37 56.4048 213.441 56.7657 213.441 57.1395ZM211.43 57.9324C211.417 57.7648 211.345 57.6359 211.215 57.5457C211.098 57.4554 210.967 57.3845 210.824 57.3329C210.694 57.2684 210.583 57.204 210.492 57.1395C210.414 57.0751 210.408 56.9784 210.473 56.8495C210.499 56.7463 210.538 56.6819 210.59 56.6561C210.655 56.6174 210.72 56.5981 210.785 56.5981C210.759 56.3661 210.648 56.0953 210.453 55.7859C210.258 55.4764 210.115 55.1929 210.023 54.9351C209.945 54.7417 209.893 54.5612 209.867 54.3936C209.841 54.226 209.802 54.0713 209.75 53.9295C209.698 53.7876 209.62 53.6587 209.516 53.5427C209.424 53.4138 209.275 53.2849 209.066 53.156C208.91 53.0658 208.78 52.9948 208.676 52.9433C208.585 52.8917 208.5 52.8401 208.422 52.7885C208.357 52.7241 208.292 52.6467 208.227 52.5564C208.174 52.4662 208.109 52.3309 208.031 52.1504C207.953 51.9441 207.855 51.8023 207.738 51.725C207.634 51.6347 207.51 51.5702 207.367 51.5316C207.237 51.4929 207.087 51.4607 206.918 51.4349C206.762 51.4091 206.599 51.364 206.43 51.2995C206 51.1448 205.59 51.0159 205.199 50.9128C204.809 50.7967 204.379 50.7387 203.91 50.7387C203.025 50.7387 202.276 50.8741 201.664 51.1448C201.065 51.4027 200.57 51.7765 200.18 52.2664C199.789 52.7434 199.49 53.3171 199.281 53.9874C199.086 54.645 198.956 55.3669 198.891 56.1533C198.865 56.4627 198.812 56.7721 198.734 57.0815C198.669 57.3909 198.598 57.7003 198.52 58.0097C198.441 58.3062 198.37 58.6092 198.305 58.9186C198.24 59.228 198.207 59.5374 198.207 59.8468C198.207 59.9886 198.214 60.0918 198.227 60.1562C198.24 60.2078 198.298 60.2852 198.402 60.3883C198.624 60.6461 198.747 60.9168 198.773 61.2005C198.812 61.4842 198.839 61.7613 198.852 62.032C198.878 62.2899 198.936 62.5283 199.027 62.7475C199.118 62.9538 199.327 63.1085 199.652 63.2117C199.848 63.2761 199.991 63.347 200.082 63.4244C200.186 63.4888 200.271 63.5661 200.336 63.6564C200.401 63.7466 200.46 63.8498 200.512 63.9659C200.577 64.0689 200.661 64.185 200.766 64.3139C201.039 64.2494 201.319 64.2044 201.605 64.1785C201.892 64.1528 202.172 64.1076 202.445 64.0432C202.445 64.2108 202.523 64.3462 202.68 64.4493C202.849 64.5524 203.044 64.6297 203.266 64.6813C203.487 64.7329 203.708 64.7716 203.93 64.7973C204.164 64.8102 204.34 64.8166 204.457 64.8166C204.678 64.8166 204.913 64.8102 205.16 64.7973C205.408 64.7716 205.642 64.7264 205.863 64.662C206.098 64.5975 206.312 64.5072 206.508 64.3913C206.716 64.2623 206.879 64.0883 206.996 63.8691C207.191 63.534 207.419 63.2955 207.68 63.1537C207.953 62.9989 208.22 62.8636 208.48 62.7475C208.754 62.6315 209.001 62.4897 209.223 62.3221C209.457 62.1416 209.633 61.8645 209.75 61.4906C209.893 61.0393 210.043 60.5817 210.199 60.1176C210.355 59.6406 210.434 59.1571 210.434 58.6672C210.434 58.4996 210.414 58.3385 210.375 58.1838C210.349 58.0162 210.303 57.8551 210.238 57.7003C210.395 57.7777 210.551 57.8744 210.707 57.9904C210.876 58.1064 211.052 58.1645 211.234 58.1645C211.299 58.1645 211.345 58.1452 211.371 58.1064C211.41 58.0549 211.43 57.9968 211.43 57.9324ZM236.059 57.1395C236.059 57.3587 236.007 57.5521 235.902 57.7197C235.798 57.8872 235.616 57.9775 235.355 57.9904C235.434 58.2354 235.551 58.4674 235.707 58.6865C235.863 58.9058 235.941 59.1507 235.941 59.4214C235.941 59.6019 235.909 59.7824 235.844 59.9629C235.792 60.1305 235.727 60.298 235.648 60.4657C235.583 60.6333 235.512 60.8009 235.434 60.9684C235.355 61.136 235.297 61.3037 235.258 61.4712C235.193 61.7291 235.043 62.0964 234.809 62.5735C234.587 63.0376 234.333 63.521 234.047 64.0239C233.773 64.5266 233.493 64.9971 233.207 65.4355C232.921 65.8609 232.68 66.1639 232.484 66.3444C232.341 66.4733 232.191 66.5636 232.035 66.6151C231.879 66.6666 231.723 66.7054 231.566 66.7311C231.41 66.7569 231.247 66.7827 231.078 66.8085C230.909 66.8214 230.746 66.86 230.59 66.9246C230.277 67.0663 229.978 67.2274 229.691 67.4079C229.418 67.6013 229.105 67.698 228.754 67.698C228.611 67.698 228.48 67.6658 228.363 67.6013C228.246 67.5368 228.129 67.466 228.012 67.3886C227.908 67.3113 227.797 67.2404 227.68 67.176C227.562 67.1115 227.432 67.0792 227.289 67.0792C227.12 67.1824 226.905 67.2661 226.645 67.3306C226.384 67.3951 226.111 67.4466 225.824 67.4854C225.551 67.524 225.277 67.5498 225.004 67.5627C224.743 67.5756 224.516 67.582 224.32 67.582C223.669 67.582 223.122 67.4338 222.68 67.1372C222.237 66.8536 221.827 66.4668 221.449 65.9769C221.358 66.0028 221.26 66.0478 221.156 66.1123C221.052 66.1767 220.948 66.2477 220.844 66.3251C220.74 66.4024 220.642 66.4733 220.551 66.5377C220.46 66.5893 220.388 66.6151 220.336 66.6151L220.297 66.3637L220.18 66.2283C220.062 66.2283 219.958 66.267 219.867 66.3444C219.789 66.4088 219.711 66.4862 219.633 66.5764C219.568 66.6666 219.49 66.7505 219.398 66.8278C219.32 66.8923 219.216 66.9246 219.086 66.9246C218.943 66.9246 218.806 66.9052 218.676 66.8665C218.546 66.815 218.48 66.6989 218.48 66.5184C218.48 66.3766 218.507 66.2542 218.559 66.151C218.624 66.035 218.656 65.906 218.656 65.7643C218.656 65.5966 218.637 65.4355 218.598 65.2808C218.559 65.1261 218.539 64.9714 218.539 64.8166C218.539 64.6491 218.552 64.4879 218.578 64.3333C218.617 64.1785 218.637 64.0174 218.637 63.8498C218.637 63.6564 218.604 63.4631 218.539 63.2696C218.487 63.0763 218.428 62.8893 218.363 62.7088C218.298 62.5155 218.233 62.3285 218.168 62.148C218.116 61.9547 218.09 61.7549 218.09 61.5486C218.09 61.2778 218.148 61.02 218.266 60.7751C218.383 60.5301 218.441 60.2723 218.441 60.0016C218.441 59.9113 218.428 59.8404 218.402 59.7888C218.376 59.7244 218.35 59.6728 218.324 59.6342C218.298 59.5826 218.272 59.5246 218.246 59.4601C218.22 59.3828 218.207 59.2732 218.207 59.1314C218.207 58.9895 218.207 58.8413 218.207 58.6865C218.22 58.519 218.227 58.403 218.227 58.3385C218.227 58.1322 218.207 57.9324 218.168 57.739C218.129 57.5457 218.109 57.3458 218.109 57.1395C218.109 56.8044 218.155 56.4692 218.246 56.134C218.337 55.7988 218.383 55.4636 218.383 55.1284C218.383 54.6772 218.344 54.226 218.266 53.7748C218.201 53.3236 218.168 52.8659 218.168 52.4018C218.168 52.2342 218.188 52.0665 218.227 51.899C218.279 51.7314 218.331 51.5638 218.383 51.3962C218.448 51.2286 218.5 51.0674 218.539 50.9128C218.591 50.7452 218.617 50.5711 218.617 50.3906C218.617 50.0426 218.591 49.7009 218.539 49.3658C218.487 49.0305 218.428 48.6954 218.363 48.3602C218.311 48.0121 218.259 47.6704 218.207 47.3353C218.168 46.9871 218.148 46.6391 218.148 46.291C218.148 46.0848 218.148 45.885 218.148 45.6915C218.161 45.4853 218.168 45.279 218.168 45.0727C218.168 44.4539 218.064 43.9962 217.855 43.6997C217.647 43.3903 217.38 43.1712 217.055 43.0423C216.742 42.9004 216.404 42.8166 216.039 42.7909C215.674 42.7651 215.329 42.7263 215.004 42.6749C214.691 42.6104 214.431 42.5008 214.223 42.3461C214.014 42.1785 213.91 41.8949 213.91 41.4953C213.91 41.1471 214.001 40.8699 214.184 40.6637C214.366 40.4574 214.594 40.3027 214.867 40.1996C215.128 40.0836 215.414 40.0127 215.727 39.9868C216.039 39.9482 216.326 39.9288 216.586 39.9288C217.263 39.9288 217.934 39.9933 218.598 40.1222C219.262 40.2382 219.932 40.3091 220.609 40.335C220.766 40.3736 220.863 40.4446 220.902 40.5476C220.941 40.6508 220.948 40.7797 220.922 40.9345C220.909 41.0891 220.883 41.2632 220.844 41.4565C220.805 41.6499 220.785 41.8561 220.785 42.0754C220.785 42.5008 220.772 42.9262 220.746 43.3517C220.733 43.777 220.727 44.1639 220.727 44.5119C220.727 44.6279 220.727 44.8343 220.727 45.1307C220.74 45.4272 220.753 45.7625 220.766 46.1363C220.792 46.4972 220.824 46.8841 220.863 47.2965C220.915 47.6962 220.974 48.0637 221.039 48.3988C221.117 48.7211 221.208 48.9919 221.312 49.211C221.417 49.4302 221.547 49.5398 221.703 49.5398C221.833 49.5398 221.951 49.5075 222.055 49.4431C222.172 49.3786 222.283 49.3013 222.387 49.211C222.491 49.1208 222.589 49.0305 222.68 48.9403C222.784 48.8371 222.895 48.7598 223.012 48.7082C223.285 48.5922 223.585 48.5084 223.91 48.4568C224.249 48.3924 224.574 48.3602 224.887 48.3602C225.004 48.3602 225.121 48.3279 225.238 48.2635C225.355 48.199 225.473 48.1346 225.59 48.0701C225.707 47.9928 225.831 47.9218 225.961 47.8573C226.091 47.7929 226.234 47.7607 226.391 47.7607C226.573 47.7607 226.749 47.7929 226.918 47.8573C227.1 47.9089 227.27 47.9734 227.426 48.0507C227.595 48.1281 227.764 48.2055 227.934 48.2828C228.116 48.3472 228.298 48.386 228.48 48.3988C228.741 48.4247 229.001 48.4568 229.262 48.4956C229.535 48.5213 229.796 48.5858 230.043 48.6889C230.186 48.7534 230.29 48.8307 230.355 48.921C230.421 49.0112 230.512 49.0885 230.629 49.153C230.772 49.2433 230.909 49.2949 231.039 49.3077C231.169 49.3206 231.299 49.3335 231.43 49.3463C231.56 49.3593 231.697 49.3915 231.84 49.4431C231.983 49.4818 232.146 49.572 232.328 49.7138C232.51 49.8685 232.699 50.0296 232.895 50.1972C233.103 50.352 233.292 50.5195 233.461 50.7C233.643 50.8805 233.799 51.0739 233.93 51.2802C234.073 51.4864 234.171 51.7121 234.223 51.957C234.314 52.4469 234.451 52.9883 234.633 53.5814C234.815 54.1744 235.049 54.6772 235.336 55.0897C235.544 55.3862 235.714 55.7085 235.844 56.0566C235.987 56.4048 236.059 56.7657 236.059 57.1395ZM234.047 57.9324C234.034 57.7648 233.962 57.6359 233.832 57.5457C233.715 57.4554 233.585 57.3845 233.441 57.3329C233.311 57.2684 233.201 57.204 233.109 57.1395C233.031 57.0751 233.025 56.9784 233.09 56.8495C233.116 56.7463 233.155 56.6819 233.207 56.6561C233.272 56.6174 233.337 56.5981 233.402 56.5981C233.376 56.3661 233.266 56.0953 233.07 55.7859C232.875 55.4764 232.732 55.1929 232.641 54.9351C232.562 54.7417 232.51 54.5612 232.484 54.3936C232.458 54.226 232.419 54.0713 232.367 53.9295C232.315 53.7876 232.237 53.6587 232.133 53.5427C232.042 53.4138 231.892 53.2849 231.684 53.156C231.527 53.0658 231.397 52.9948 231.293 52.9433C231.202 52.8917 231.117 52.8401 231.039 52.7885C230.974 52.7241 230.909 52.6467 230.844 52.5564C230.792 52.4662 230.727 52.3309 230.648 52.1504C230.57 51.9441 230.473 51.8023 230.355 51.725C230.251 51.6347 230.128 51.5702 229.984 51.5316C229.854 51.4929 229.704 51.4607 229.535 51.4349C229.379 51.4091 229.216 51.364 229.047 51.2995C228.617 51.1448 228.207 51.0159 227.816 50.9128C227.426 50.7967 226.996 50.7387 226.527 50.7387C225.642 50.7387 224.893 50.8741 224.281 51.1448C223.682 51.4027 223.188 51.7765 222.797 52.2664C222.406 52.7434 222.107 53.3171 221.898 53.9874C221.703 54.645 221.573 55.3669 221.508 56.1533C221.482 56.4627 221.43 56.7721 221.352 57.0815C221.286 57.3909 221.215 57.7003 221.137 58.0097C221.059 58.3062 220.987 58.6092 220.922 58.9186C220.857 59.228 220.824 59.5374 220.824 59.8468C220.824 59.9886 220.831 60.0918 220.844 60.1562C220.857 60.2078 220.915 60.2852 221.02 60.3883C221.241 60.6461 221.365 60.9168 221.391 61.2005C221.43 61.4842 221.456 61.7613 221.469 62.032C221.495 62.2899 221.553 62.5283 221.645 62.7475C221.736 62.9538 221.944 63.1085 222.27 63.2117C222.465 63.2761 222.608 63.347 222.699 63.4244C222.803 63.4888 222.888 63.5661 222.953 63.6564C223.018 63.7466 223.077 63.8498 223.129 63.9659C223.194 64.0689 223.279 64.185 223.383 64.3139C223.656 64.2494 223.936 64.2044 224.223 64.1785C224.509 64.1528 224.789 64.1076 225.062 64.0432C225.062 64.2108 225.141 64.3462 225.297 64.4493C225.466 64.5524 225.661 64.6297 225.883 64.6813C226.104 64.7329 226.326 64.7716 226.547 64.7973C226.781 64.8102 226.957 64.8166 227.074 64.8166C227.296 64.8166 227.53 64.8102 227.777 64.7973C228.025 64.7716 228.259 64.7264 228.48 64.662C228.715 64.5975 228.93 64.5072 229.125 64.3913C229.333 64.2623 229.496 64.0883 229.613 63.8691C229.809 63.534 230.036 63.2955 230.297 63.1537C230.57 62.9989 230.837 62.8636 231.098 62.7475C231.371 62.6315 231.618 62.4897 231.84 62.3221C232.074 62.1416 232.25 61.8645 232.367 61.4906C232.51 61.0393 232.66 60.5817 232.816 60.1176C232.973 59.6406 233.051 59.1571 233.051 58.6672C233.051 58.4996 233.031 58.3385 232.992 58.1838C232.966 58.0162 232.921 57.8551 232.855 57.7003C233.012 57.7777 233.168 57.8744 233.324 57.9904C233.493 58.1064 233.669 58.1645 233.852 58.1645C233.917 58.1645 233.962 58.1452 233.988 58.1064C234.027 58.0549 234.047 57.9968 234.047 57.9324ZM259.105 66.0737C259.105 66.5249 258.949 66.8794 258.637 67.1372C258.337 67.4079 257.973 67.6078 257.543 67.7367C257.113 67.8785 256.664 67.9687 256.195 68.0074C255.74 68.0461 255.349 68.0655 255.023 68.0655C254.594 68.0655 254.236 68.0267 253.949 67.9494C253.676 67.8721 253.435 67.7882 253.227 67.698C253.018 67.6207 252.836 67.5434 252.68 67.466C252.523 67.3886 252.361 67.3499 252.191 67.3499C251.97 67.3499 251.749 67.3886 251.527 67.466C251.319 67.5434 251.104 67.582 250.883 67.582C250.727 67.582 250.596 67.5562 250.492 67.5047C250.401 67.4531 250.323 67.3886 250.258 67.3113C250.193 67.2468 250.128 67.1888 250.062 67.1372C250.01 67.0857 249.945 67.0599 249.867 67.0599C249.776 67.0599 249.704 67.0921 249.652 67.1565C249.6 67.2339 249.542 67.3177 249.477 67.4079C249.411 67.4982 249.314 67.5756 249.184 67.64C249.066 67.7173 248.891 67.7561 248.656 67.7561C248.383 67.7561 248.116 67.7238 247.855 67.6593C247.595 67.6078 247.328 67.582 247.055 67.582C246.781 67.582 246.508 67.6271 246.234 67.7173C245.974 67.8205 245.727 67.8721 245.492 67.8721C245.388 67.8721 245.31 67.8334 245.258 67.7561C245.206 67.6916 245.147 67.6593 245.082 67.6593C244.861 67.6593 244.626 67.7109 244.379 67.8141C244.145 67.9172 243.904 67.9687 243.656 67.9687C243.526 67.9687 243.396 67.9494 243.266 67.9107C243.148 67.885 243.025 67.8721 242.895 67.8721C242.673 67.8721 242.452 67.9237 242.23 68.0267C242.009 68.1299 241.736 68.1815 241.41 68.1815C241.293 68.1815 241.033 68.1622 240.629 68.1235C240.238 68.0976 239.835 68.0526 239.418 67.9881C239.001 67.9237 238.624 67.8398 238.285 67.7367C237.96 67.6464 237.797 67.5434 237.797 67.4273C237.797 67.0921 237.855 66.7569 237.973 66.4217C238.103 66.0865 238.168 65.7643 238.168 65.4549V65.4161C237.999 65.4161 237.901 65.3259 237.875 65.1455C237.901 65.0939 237.94 65.0552 237.992 65.0294C238.057 64.9907 238.122 64.965 238.188 64.9521C238.253 64.9262 238.311 64.8941 238.363 64.8554C238.415 64.8166 238.441 64.7586 238.441 64.6813V64.604C238.962 64.6556 239.47 64.6877 239.965 64.7007C240.473 64.7136 241 64.72 241.547 64.72C242.055 64.72 242.615 64.7071 243.227 64.6813C243.852 64.6427 244.424 64.546 244.945 64.3913C245.479 64.2365 245.922 64.0045 246.273 63.6951C246.638 63.3728 246.82 62.928 246.82 62.3608V62.2255V61.916C246.755 60.4979 246.684 59.1056 246.605 57.739C246.54 56.3596 246.508 54.9608 246.508 53.5427C246.508 53.1688 246.475 52.8078 246.41 52.4598C246.358 52.0988 246.332 51.7378 246.332 51.3768C246.332 50.9257 246.41 50.4745 246.566 50.0232C246.736 49.572 246.996 49.1917 247.348 48.8823C247.335 48.805 247.302 48.7534 247.25 48.7275C247.198 48.6889 247.133 48.6631 247.055 48.6502C246.977 48.6373 246.898 48.6245 246.82 48.6116C246.755 48.5986 246.697 48.5793 246.645 48.5536C246.566 48.5149 246.514 48.4247 246.488 48.2828C246.462 48.141 246.436 47.9862 246.41 47.8187C246.397 47.6511 246.378 47.4899 246.352 47.3353C246.339 47.1676 246.299 47.0387 246.234 46.9485C246.273 46.5747 246.339 46.2072 246.43 45.8462C246.521 45.4853 246.566 45.1178 246.566 44.744C246.566 44.4733 246.527 44.2605 246.449 44.1059C246.384 43.9511 246.306 43.8222 246.215 43.719C246.124 43.616 246.039 43.5257 245.961 43.4483C245.896 43.3581 245.863 43.2485 245.863 43.1196C245.863 43.0164 245.896 42.9198 245.961 42.8295L245.805 42.8102C245.674 42.8102 245.577 42.8424 245.512 42.9068C245.447 42.9713 245.382 43.0423 245.316 43.1196C245.264 43.1969 245.206 43.2678 245.141 43.3323C245.076 43.3967 244.984 43.429 244.867 43.429C244.776 43.429 244.672 43.4097 244.555 43.371C244.333 43.4355 244.125 43.4676 243.93 43.4676C243.474 43.4676 243.018 43.4097 242.562 43.2937C242.12 43.1648 241.671 43.1002 241.215 43.1002C240.967 43.1002 240.727 43.1132 240.492 43.1389C240.258 43.1518 240.023 43.1582 239.789 43.1582C239.451 43.1582 239.112 43.1196 238.773 43.0423C238.435 42.9649 238.135 42.7973 237.875 42.5394V42.3074C237.875 41.6242 238.103 41.1084 238.559 40.7604C239.027 40.4123 239.594 40.2382 240.258 40.2382C240.714 40.2382 241.163 40.2962 241.605 40.4123C242.048 40.5283 242.497 40.5863 242.953 40.5863C243.201 40.5863 243.461 40.5605 243.734 40.509C244.008 40.4574 244.288 40.3994 244.574 40.335C244.861 40.2705 245.147 40.2125 245.434 40.1609C245.733 40.1093 246.026 40.0836 246.312 40.0836C246.755 40.0836 247.172 40.1802 247.562 40.3736C247.953 40.5541 248.344 40.7281 248.734 40.8958L248.715 41.0504C248.715 41.1664 248.741 41.276 248.793 41.3792C248.858 41.4694 248.93 41.5661 249.008 41.6692C249.086 41.7595 249.151 41.8561 249.203 41.9593C249.268 42.0496 249.301 42.1527 249.301 42.2687C249.301 42.3848 249.281 42.5008 249.242 42.6168C249.216 42.7199 249.203 42.8295 249.203 42.9456C249.203 43.2292 249.255 43.4999 249.359 43.7577C249.477 44.0156 249.535 44.2928 249.535 44.5893C249.535 44.8987 249.496 45.2016 249.418 45.4981C249.353 45.7947 249.32 46.0976 249.32 46.407C249.32 46.7809 249.366 47.1548 249.457 47.5286C249.548 47.9025 249.594 48.2763 249.594 48.6502C249.594 48.9596 249.542 49.2626 249.438 49.5591C249.346 49.8557 249.301 50.1521 249.301 50.4486C249.301 50.6678 249.327 50.8869 249.379 51.1061C249.444 51.3124 249.516 51.5187 249.594 51.725C249.672 51.9312 249.737 52.144 249.789 52.3631C249.854 52.5694 249.887 52.7885 249.887 53.0206V53.4073C249.887 53.6136 249.867 53.8135 249.828 54.0068C249.802 54.1873 249.717 54.3613 249.574 54.5289C249.639 54.7739 249.704 55.0381 249.77 55.3218C249.848 55.6055 249.887 55.8762 249.887 56.134C249.887 56.2629 249.874 56.4048 249.848 56.5594C249.835 56.7012 249.802 56.8495 249.75 57.0042C249.711 57.146 249.652 57.2814 249.574 57.4103C249.496 57.5263 249.405 57.623 249.301 57.7003C249.47 58.1902 249.581 58.6865 249.633 59.1893C249.685 59.6922 249.724 60.195 249.75 60.6977C249.763 60.8524 249.789 61.0523 249.828 61.2972C249.867 61.5422 249.906 61.787 249.945 62.032C249.984 62.2641 250.017 62.4833 250.043 62.6895C250.082 62.8829 250.102 63.0182 250.102 63.0957C250.102 63.3148 250.062 63.5275 249.984 63.7338C249.906 63.94 249.867 64.1528 249.867 64.3719C249.867 64.5395 249.906 64.72 249.984 64.9134C250.062 65.0939 250.206 65.1841 250.414 65.1841C250.57 65.1841 250.701 65.1519 250.805 65.0874C250.922 65.0101 251.046 64.9327 251.176 64.8554C251.306 64.7652 251.456 64.6877 251.625 64.6233C251.807 64.546 252.048 64.5072 252.348 64.5072C252.686 64.5072 253.005 64.5524 253.305 64.6427C253.604 64.7329 253.923 64.778 254.262 64.778C254.509 64.778 254.757 64.7586 255.004 64.72C255.264 64.6684 255.512 64.6168 255.746 64.5653C255.993 64.5008 256.241 64.4428 256.488 64.3913C256.736 64.3397 256.99 64.3139 257.25 64.3139C257.771 64.3139 258.207 64.4622 258.559 64.7586C258.923 65.0552 259.105 65.4935 259.105 66.0737ZM247.895 41.998C247.842 41.9464 247.777 41.8949 247.699 41.8433C247.634 41.7917 247.556 41.766 247.465 41.766C247.4 41.766 247.341 41.7981 247.289 41.8626C247.25 41.9142 247.23 41.9722 247.23 42.0366L247.328 42.2687C247.38 42.2945 247.419 42.3074 247.445 42.3074C247.549 42.3074 247.634 42.2752 247.699 42.2107C247.777 42.1334 247.842 42.0625 247.895 41.998ZM249.066 47.374C249.066 47.2708 249.034 47.1676 248.969 47.0646C248.917 46.9485 248.826 46.8905 248.695 46.8905C248.656 46.8905 248.611 46.8969 248.559 46.9098C248.52 46.9227 248.487 46.9356 248.461 46.9485V47.78C248.565 47.8316 248.643 47.8573 248.695 47.8573C248.826 47.8573 248.917 47.8059 248.969 47.7027C249.034 47.5866 249.066 47.477 249.066 47.374ZM279.281 63.0376C279.281 63.3857 279.223 63.6822 279.105 63.9271C279.001 64.1721 278.858 64.3913 278.676 64.5847C278.507 64.778 278.305 64.9585 278.07 65.126C277.849 65.2937 277.621 65.4742 277.387 65.6675C277.204 65.8223 277.042 65.9383 276.898 66.0156C276.755 66.093 276.612 66.1574 276.469 66.209C276.339 66.2606 276.195 66.3122 276.039 66.3637C275.896 66.4153 275.727 66.4862 275.531 66.5764C275.271 66.7054 275.049 66.8278 274.867 66.9439C274.698 67.0469 274.522 67.1437 274.34 67.2339C274.171 67.3242 273.982 67.3951 273.773 67.4466C273.565 67.5111 273.305 67.5627 272.992 67.6013C272.471 67.6658 271.944 67.7432 271.41 67.8334C270.889 67.9237 270.368 67.9687 269.848 67.9687C269.743 67.9687 269.633 67.943 269.516 67.8914C269.411 67.8527 269.288 67.8076 269.145 67.7561C269.001 67.7173 268.839 67.6723 268.656 67.6207C268.487 67.582 268.279 67.5627 268.031 67.5627C267.771 67.5627 267.562 67.524 267.406 67.4466C267.25 67.3693 267.107 67.279 266.977 67.176C266.859 67.0728 266.736 66.9632 266.605 66.8471C266.475 66.7182 266.306 66.6086 266.098 66.5184C265.316 66.1703 264.652 65.7514 264.105 65.2615C263.559 64.7716 263.09 64.2237 262.699 63.6177C262.309 63.0118 261.983 62.3544 261.723 61.6453C261.462 60.9362 261.241 60.195 261.059 59.4214C260.915 58.88 260.844 58.3385 260.844 57.797C260.844 57.088 261.013 56.4305 261.352 55.8246C261.221 55.4636 261.156 55.1156 261.156 54.7803C261.156 54.5354 261.228 54.1744 261.371 53.6974C261.514 53.2075 261.697 52.7176 261.918 52.2277C262.152 51.7378 262.4 51.2995 262.66 50.9128C262.934 50.5131 263.188 50.2681 263.422 50.1779C263.604 50.1135 263.728 50.0619 263.793 50.0232C263.871 49.9717 263.91 49.8427 263.91 49.6364C263.91 49.4818 263.969 49.3529 264.086 49.2497C264.216 49.1465 264.366 49.0628 264.535 48.9983C264.717 48.9339 264.893 48.8759 265.062 48.8243C265.245 48.7727 265.395 48.7211 265.512 48.6695C265.993 48.4375 266.449 48.2442 266.879 48.0894C267.322 47.9218 267.758 47.7864 268.188 47.6834C268.63 47.5673 269.086 47.4835 269.555 47.4319C270.023 47.3804 270.525 47.3546 271.059 47.3546C271.345 47.3546 271.625 47.3933 271.898 47.4706C272.172 47.5479 272.432 47.6511 272.68 47.78C272.94 47.8961 273.194 48.0314 273.441 48.1861C273.689 48.3279 273.93 48.4697 274.164 48.6116H274.145C274.34 48.6373 274.522 48.6954 274.691 48.7856C274.874 48.863 275.062 48.9145 275.258 48.9403C275.44 49.1594 275.674 49.3722 275.961 49.5784C276.26 49.7718 276.547 49.9781 276.82 50.1972C277.107 50.4164 277.348 50.655 277.543 50.9128C277.751 51.1577 277.855 51.4413 277.855 51.7636C277.855 51.8152 277.849 51.8667 277.836 51.9183C277.836 51.9699 277.829 52.0279 277.816 52.0924L277.895 51.9957C277.947 52.0344 277.992 52.0988 278.031 52.189C278.083 52.2793 278.129 52.3824 278.168 52.4984C278.207 52.6016 278.24 52.7112 278.266 52.8272C278.292 52.9303 278.311 53.0142 278.324 53.0786C278.428 53.2462 278.565 53.3816 278.734 53.4847C278.917 53.5878 279.06 53.7296 279.164 53.9101C279.034 54.039 278.969 54.2066 278.969 54.4129C278.969 54.6321 279.014 54.8512 279.105 55.0704C279.197 55.2766 279.242 55.4894 279.242 55.7085C279.242 55.9663 279.229 56.2177 279.203 56.4627C279.177 56.6948 279.164 56.9397 279.164 57.1975C279.164 57.3909 279.086 57.5392 278.93 57.6424C278.786 57.7455 278.624 57.8358 278.441 57.9131C278.272 57.9904 278.116 58.0677 277.973 58.1452C277.829 58.2225 277.758 58.3321 277.758 58.4739C277.758 58.577 277.693 58.6285 277.562 58.6285C277.445 58.6157 277.348 58.6092 277.27 58.6092C276.697 58.6092 276.124 58.5383 275.551 58.3965C274.991 58.2547 274.431 58.1838 273.871 58.1838C273.259 58.1838 272.654 58.2289 272.055 58.3191C271.456 58.3965 270.85 58.4352 270.238 58.4352C269.783 58.4352 269.327 58.4223 268.871 58.3965C268.428 58.3707 267.979 58.3578 267.523 58.3578C267.406 58.3578 267.185 58.3836 266.859 58.4352C266.534 58.4739 266.189 58.5319 265.824 58.6092C265.473 58.6737 265.134 58.7575 264.809 58.8606C264.483 58.9509 264.255 59.0411 264.125 59.1314C264.112 59.1959 264.105 59.2861 264.105 59.4021C264.105 60.008 264.281 60.6333 264.633 61.2778C264.997 61.9225 265.473 62.509 266.059 63.0376C266.645 63.5661 267.302 64.0045 268.031 64.3526C268.76 64.7007 269.496 64.8747 270.238 64.8747C270.668 64.8747 271.091 64.8941 271.508 64.9327C271.938 64.9585 272.354 65.0487 272.758 65.2035C273.109 65.0359 273.428 64.8425 273.715 64.6233C274.014 64.4042 274.301 64.1721 274.574 63.9271C274.848 63.6822 275.115 63.4308 275.375 63.173C275.635 62.9152 275.902 62.6573 276.176 62.3994C276.228 62.3479 276.352 62.3028 276.547 62.2641C276.755 62.2125 276.977 62.1739 277.211 62.148C277.445 62.1094 277.667 62.0836 277.875 62.0707C278.096 62.045 278.246 62.032 278.324 62.032C278.624 62.032 278.904 62.0771 279.164 62.1674C279.242 62.4639 279.281 62.754 279.281 63.0376ZM276.352 55.1864C276.352 54.9931 276.319 54.8062 276.254 54.6257C276.189 54.4452 276.137 54.2582 276.098 54.0649C276.033 53.7039 276 53.3558 276 53.0206C276 52.6725 275.948 52.3245 275.844 51.9763H275.824C275.824 52.0537 275.798 52.131 275.746 52.2084C275.694 52.2729 275.622 52.3051 275.531 52.3051C275.375 52.3051 275.225 52.2664 275.082 52.189C274.939 52.1117 274.815 52.0151 274.711 51.899C274.216 51.6798 273.767 51.4736 273.363 51.2802C272.973 51.0868 272.576 50.9192 272.172 50.7774C271.781 50.6227 271.358 50.5066 270.902 50.4293C270.46 50.339 269.945 50.294 269.359 50.294C269.307 50.294 269.255 50.3004 269.203 50.3133C269.164 50.3133 269.125 50.3326 269.086 50.3713L269.184 50.584L269.027 50.6227C268.676 50.6871 268.383 50.7516 268.148 50.816C267.927 50.8676 267.725 50.945 267.543 51.0481C267.361 51.1513 267.178 51.2802 266.996 51.4349C266.827 51.5766 266.605 51.7636 266.332 51.9957C266.202 52.1117 266.059 52.202 265.902 52.2664C265.759 52.3179 265.609 52.3695 265.453 52.4211C265.31 52.4598 265.167 52.5049 265.023 52.5564C264.893 52.608 264.783 52.6919 264.691 52.8078C264.6 53.1302 264.464 53.446 264.281 53.7555C264.112 54.0519 264.027 54.3678 264.027 54.703C264.027 54.8963 264.105 55.0704 264.262 55.2251C264.431 55.3669 264.639 55.4894 264.887 55.5925C265.147 55.6957 265.427 55.786 265.727 55.8633C266.039 55.9406 266.345 55.9986 266.645 56.0373C266.944 56.0759 267.217 56.1082 267.465 56.134C267.725 56.1468 267.927 56.1533 268.07 56.1533C268.565 56.1533 269.053 56.1082 269.535 56.0179C270.017 55.9149 270.505 55.8633 271 55.8633C271.508 55.8633 272.016 55.889 272.523 55.9406C273.031 55.9793 273.539 55.9986 274.047 55.9986C274.177 55.9986 274.372 55.9922 274.633 55.9793C274.893 55.9663 275.147 55.9342 275.395 55.8826C275.655 55.8181 275.876 55.7344 276.059 55.6312C276.254 55.5152 276.352 55.3669 276.352 55.1864Z" fill="#1D1D1D"/>
<path d="M30.7917 72.9168H37.0417L63.6042 46.6173L57.4583 40.326L30.7917 66.7287V72.9168ZM65.4792 44.7609L69.5417 40.7386C70.0278 40.2572 70.2882 39.7243 70.3229 39.14C70.3576 38.5555 70.0972 37.9883 69.5417 37.4382L66.5208 34.5505C65.9653 34.0004 65.4097 33.7425 64.8542 33.7769C64.2986 33.8113 63.7778 34.0691 63.2917 34.5505L59.3333 38.4696L65.4792 44.7609ZM19.75 90.3466C18.0139 90.3466 16.5382 89.745 15.3229 88.5418C14.1076 87.3385 13.5 85.8774 13.5 84.1585V22.2773C13.5 20.5584 14.1076 19.0973 15.3229 17.894C16.5382 16.6909 18.0139 16.0892 19.75 16.0892H41.1042C41.4514 13.6827 42.5625 11.7059 44.4375 10.1589C46.3125 8.61189 48.5 7.83838 51 7.83838C53.5 7.83838 55.6875 8.61189 57.5625 10.1589C59.4375 11.7059 60.5486 13.6827 60.8958 16.0892H82.25C83.9861 16.0892 85.4618 16.6909 86.6771 17.894C87.8924 19.0973 88.5 20.5584 88.5 22.2773V84.1585C88.5 85.8774 87.8924 87.3385 86.6771 88.5418C85.4618 89.745 83.9861 90.3466 82.25 90.3466H19.75ZM19.75 84.1585H82.25V22.2773H19.75V84.1585ZM51 20.524C51.9722 20.524 52.8229 20.163 53.5521 19.4411C54.2812 18.7192 54.6458 17.8769 54.6458 16.9143C54.6458 15.9517 54.2812 15.1094 53.5521 14.3875C52.8229 13.6655 51.9722 13.3045 51 13.3045C50.0278 13.3045 49.1771 13.6655 48.4479 14.3875C47.7187 15.1094 47.3542 15.9517 47.3542 16.9143C47.3542 17.8769 47.7187 18.7192 48.4479 19.4411C49.1771 20.163 50.0278 20.524 51 20.524Z" fill="#1D1D1D"/>
</g>
</svg>
