<svg width="76" height="84" viewBox="0 0 76 84" fill="none" xmlns="http://www.w3.org/2000/svg">
<path d="M17.7917 65.9168H24.0417L50.6042 39.6173L44.4583 33.326L17.7917 59.7287V65.9168ZM52.4792 37.7609L56.5417 33.7386C57.0278 33.2572 57.2882 32.7243 57.3229 32.14C57.3576 31.5555 57.0972 30.9883 56.5417 30.4382L53.5208 27.5505C52.9653 27.0004 52.4097 26.7425 51.8542 26.7769C51.2986 26.8113 50.7778 27.0691 50.2917 27.5505L46.3333 31.4696L52.4792 37.7609ZM6.75 83.3466C5.0139 83.3466 3.5382 82.745 2.3229 81.5418C1.1076 80.3385 0.5 78.8774 0.5 77.1585V15.2773C0.5 13.5584 1.1076 12.0973 2.3229 10.894C3.5382 9.69086 5.0139 9.08918 6.75 9.08918H28.1042C28.4514 6.68275 29.5625 4.70591 31.4375 3.15888C33.3125 1.61189 35.5 0.838379 38 0.838379C40.5 0.838379 42.6875 1.61189 44.5625 3.15888C46.4375 4.70591 47.5486 6.68275 47.8958 9.08918H69.25C70.9861 9.08918 72.4618 9.69086 73.6771 10.894C74.8924 12.0973 75.5 13.5584 75.5 15.2773V77.1585C75.5 78.8774 74.8924 80.3385 73.6771 81.5418C72.4618 82.745 70.9861 83.3466 69.25 83.3466H6.75ZM6.75 77.1585H69.25V15.2773H6.75V77.1585ZM38 13.524C38.9722 13.524 39.8229 13.163 40.5521 12.4411C41.2812 11.7192 41.6458 10.8769 41.6458 9.91433C41.6458 8.95166 41.2812 8.10938 40.5521 7.3875C39.8229 6.66552 38.9722 6.30453 38 6.30453C37.0278 6.30453 36.1771 6.66552 35.4479 7.3875C34.7187 8.10938 34.3542 8.95166 34.3542 9.91433C34.3542 10.8769 34.7187 11.7192 35.4479 12.4411C36.1771 13.163 37.0278 13.524 38 13.524Z" fill="#1D1D1D"/>
</svg>
